HIERARCHY
ROOT Hips
{
 OFFSET 0.000000 0.000000 0.000000
 CHANNELS 6 Xposition Yposition Zposition Yrotation Xrotation Zrotation
 JOINT Chest
 {
  OFFSET 0.000000 9.585900 0.002600
  CHANNELS 3 Yrotation Xrotation Zrotation
  JOINT Chest2
  {
   OFFSET 0.000000 9.601200 -0.005300
   CHANNELS 3 Yrotation Xrotation Zrotation
   JOINT Chest3
   {
    OFFSET 0.000000 9.561800 0.000000
    CHANNELS 3 Yrotation Xrotation Zrotation
    JOINT Chest4
    {
     OFFSET 0.000000 9.552100 0.000000
     CHANNELS 3 Yrotation Xrotation Zrotation
     JOINT Neck
     {
      OFFSET 0.000000 14.453000 0.000000
      CHANNELS 3 Yrotation Xrotation Zrotation
      JOINT Head
      {
       OFFSET 0.000000 8.936500 -0.011300
       CHANNELS 3 Yrotation Xrotation Zrotation
       End Site
       {
        OFFSET 0.000000 17.073600 -0.006000
       }
      }
     }
     JOINT RightCollar
     {
      OFFSET -2.921100 9.558500 0.000000
      CHANNELS 3 Yrotation Xrotation Zrotation
      JOINT RightShoulder
      {
       OFFSET -13.519700 0.000000 0.000000
       CHANNELS 3 Yrotation Xrotation Zrotation
       JOINT RightElbow
       {
        OFFSET 0.000000 -29.696600 0.000000
        CHANNELS 3 Yrotation Xrotation Zrotation
        JOINT RightWrist
        {
         OFFSET 0.000000 -24.004700 0.000000
         CHANNELS 3 Yrotation Xrotation Zrotation
         End Site
         {
          OFFSET 0.000000 -17.728500 0.000000
         }
        }
       }
      }
     }
     JOINT LeftCollar
     {
      OFFSET 2.921100 9.558500 0.000000
      CHANNELS 3 Yrotation Xrotation Zrotation
      JOINT LeftShoulder
      {
       OFFSET 13.519700 0.000000 0.000000
       CHANNELS 3 Yrotation Xrotation Zrotation
       JOINT LeftElbow
       {
        OFFSET 0.000000 -29.696600 0.000000
        CHANNELS 3 Yrotation Xrotation Zrotation
        JOINT LeftWrist
        {
         OFFSET 0.000000 -24.004700 0.000000
         CHANNELS 3 Yrotation Xrotation Zrotation
         End Site
         {
          OFFSET 0.000000 -17.728500 0.000000
         }
        }
       }
      }
     }
    }
   }
  }
 }
 JOINT RightHip
 {
  OFFSET -7.771700 -0.012900 -0.001300
  CHANNELS 3 Yrotation Xrotation Zrotation
  JOINT RightKnee
  {
   OFFSET 0.000000 -40.869800 0.001200
   CHANNELS 3 Yrotation Xrotation Zrotation
   JOINT RightAnkle
   {
    OFFSET 0.000000 -39.717900 0.002100
    CHANNELS 3 Yrotation Xrotation Zrotation
    JOINT RightToe
    {
     OFFSET 0.000000 -4.965400 11.033500
     CHANNELS 3 Yrotation Xrotation Zrotation
     End Site
     {
      OFFSET 0.000000 -1.423100 5.872300
     }
    }
   }
  }
 }
 JOINT LeftHip
 {
  OFFSET 7.771700 -0.012900 -0.001300
  CHANNELS 3 Yrotation Xrotation Zrotation
  JOINT LeftKnee
  {
   OFFSET 0.000000 -40.869800 0.001200
   CHANNELS 3 Yrotation Xrotation Zrotation
   JOINT LeftAnkle
   {
    OFFSET 0.000000 -39.717900 0.002100
    CHANNELS 3 Yrotation Xrotation Zrotation
    JOINT LeftToe
    {
     OFFSET 0.000000 -4.965400 11.033500
     CHANNELS 3 Yrotation Xrotation Zrotation
     End Site
     {
      OFFSET 0.000000 -1.423100 5.872300
     }
    }
   }
  }
 }
}
MOTION
Frames: 16
Frame Time: 0.008333
0.000000 85.388000 0.000000 0.000000 -5.767877 0.000000 0.000000 11.653817 0.000000 0.000000 -5.885947 0.000000 0.000000 -0.000000 0.000000 0.000000 -0.000000 0.000000 0.000000 12.528835 0.000000 0.000000 0.711642 0.000000 0.000000 -0.000000 0.000000 0.000000 0.000000 -90.000000 0.000000 -2.309062 0.000000 0.000000 2.309062 0.000000 0.000000 -0.000000 0.000000 0.000000 -0.000000 90.000000 0.000000 -2.309062 0.000000 0.000000 2.309062 0.000000 0.000000 8.520406 0.000000 0.000000 1.905762 0.000000 -0.000000 -4.658285 0.000000 0.000000 -0.000000 0.000000 0.000000 8.520406 0.000000 0.000000 1.905762 0.000000 -0.000000 -4.658285 0.000000 0.000000 -0.000000 0.000000
-4.941770 57.905058 32.482267 173.220249 -38.975851 -0.767456 1.395726 26.096645 2.657895 0.160698 4.363386 0.243075 0.251486 6.939311 0.381215 1.028159 21.515603 1.382901 -0.127498 15.603809 -2.998955 0.771439 -6.866972 -5.545624 8.564336 -3.500433 -3.179659 49.699084 -46.359423 -27.642439 37.481859 3.256262 -3.159101 13.631152 11.015746 -44.987575 -12.358673 -9.336252 0.890571 -34.460563 -42.820874 14.532209 -47.027852 -2.944057 8.837029 -29.009511 -1.835608 33.487700 9.492820 -33.124091 -0.179446 5.114586 69.822603 9.496735 6.123820 1.703884 0.187378 -0.251909 0.578010 -0.118177 -7.781540 -35.395201 -1.601439 24.116205 72.941626 24.032168 -21.594223 -1.562189 -3.727503 -0.343362 -0.814979 -0.149700
-4.938452 57.905418 32.481769 173.221362 -38.980994 -0.772855 1.404565 26.100021 2.675048 0.163604 4.362844 0.246422 0.253121 6.942608 0.381886 1.016949 21.515185 1.375563 -0.158068 15.566831 -3.005088 0.687132 -6.921648 -5.556949 8.565124 -3.499764 -3.173961 49.694434 -46.356326 -27.639520 37.441274 3.240591 -3.166282 13.584561 10.980205 -45.053424 -12.386290 -9.311903 0.911138 -34.471546 -42.846334 14.581071 -47.006002 -2.939528 8.811735 -29.006980 -1.843938 33.488934 9.493566 -33.120560 -0.175607 5.117618 69.823317 9.503465 6.140435 1.706029 0.184876 -0.271481 0.576349 -0.116032 -7.789296 -35.382606 -1.571770 24.077826 72.940640 23.977563 -21.622274 -1.577393 -3.734099 -0.312290 -0.798421 -0.136048
-4.937156 57.905096 32.481371 173.223143 -38.982921 -0.765166 1.401468 26.101594 2.669355 0.170254 4.359018 0.255563 0.267272 6.942215 0.396119 1.006601 21.521635 1.367791 -0.207512 15.535377 -3.019292 0.606574 -6.963262 -5.575297 8.550454 -3.499606 -3.175082 49.676047 -46.365202 -27.614880 37.290704 3.193347 -3.191516 13.665733 10.973245 -45.108712 -12.414360 -9.308773 0.918748 -34.490823 -42.850814 14.619860 -46.980206 -2.947475 8.792345 -29.004652 -1.849594 33.490293 9.506779 -33.119868 -0.189307 5.123659 69.827063 9.516899 6.132722 1.705248 0.182608 -0.268298 0.576016 -0.116229 -7.785280 -35.381177 -1.575214 24.091491 72.938144 23.983801 -21.632117 -1.573337 -3.732776 -0.304579 -0.800667 -0.134386
-4.934980 57.904311 32.481184 173.223341 -38.983598 -0.761485 1.407450 26.096607 2.678768 0.169159 4.358624 0.258834 0.263967 6.945425 0.389769 1.018334 21.520159 1.379057 -0.254537 15.512054 -3.037557 0.531543 -6.987228 -5.600130 8.540671 -3.494995 -3.168535 49.671915 -46.356377 -27.617450 37.188160 3.144256 -3.202385 13.732672 10.989354 -45.133906 -12.435697 -9.303881 0.925041 -34.504189 -42.853180 14.649322 -46.957985 -2.956396 8.775232 -29.000581 -1.855762 33.490411 9.521352 -33.120788 -0.198701 5.124395 69.828856 9.526811 6.131773 1.705275 0.182306 -0.269662 0.576164 -0.116514 -7.784524 -35.380849 -1.572821 24.090523 72.938635 23.977757 -21.639082 -1.570204 -3.731072 -0.300317 -0.803248 -0.134303
-4.933500 57.903649 32.480200 173.226115 -38.989155 -0.755613 1.408969 26.096355 2.686117 0.165415 4.356896 0.262277 0.263218 6.949770 0.381082 1.028501 21.516281 1.390172 -0.324473 15.479435 -3.063942 0.487319 -6.979153 -5.630276 8.536264 -3.485400 -3.160654 49.625455 -46.371154 -27.582186 37.140831 3.113608 -3.221096 13.714455 10.947800 -45.217206 -12.452594 -9.298640 0.921940 -34.513780 -42.852640 14.671154 -46.938867 -2.941986 8.762741 -28.999715 -1.879607 33.486432 9.538903 -33.118041 -0.211932 5.142564 69.835021 9.553751 6.120077 1.701983 0.181541 -0.267645 0.575653 -0.115568 -7.785449 -35.374628 -1.569401 24.073836 72.939605 23.950721 -21.657630 -1.570663 -3.729436 -0.298947 -0.801968 -0.131997
-4.932952 57.902664 32.479080 173.225315 -38.994555 -0.743699 1.406649 26.090622 2.702796 0.161655 4.363917 0.242797 0.267331 6.930382 0.410690 1.025816 21.508889 1.400762 -0.373377 15.498992 -3.112712 0.439272 -6.979044 -5.657904 8.526159 -3.460753 -3.158944 49.594822 -46.352399 -27.567991 37.080230 3.069840 -3.235772 13.707685 10.904272 -45.301388 -12.465412 -9.277272 0.882970 -34.508164 -42.856847 14.669238 -46.928203 -2.915430 8.757832 -28.999940 -1.906852 33.500074 9.560462 -33.116848 -0.229438 5.155098 69.846468 9.572885 6.114411 1.693573 0.180358 -0.268130 0.576724 -0.113854 -7.786378 -35.368328 -1.567479 24.038825 72.944513 23.898273 -21.654286 -1.571985 -3.727966 -0.307139 -0.797044 -0.125150
-4.933058 57.901697 32.477535 173.214519 -39.002590 -0.723706 1.408971 26.096625 2.692939 0.161726 4.360808 0.247825 0.264682 6.920217 0.422660 1.019502 21.505384 1.404885 -0.389103 15.514869 -3.141257 0.362115 -6.955961 -5.698957 8.524004 -3.443184 -3.164727 49.552226 -46.358396 -27.530515 37.023508 3.025992 -3.255911 13.726577 10.880509 -45.365086 -12.467147 -9.263140 0.875333 -34.496063 -42.858054 14.677003 -46.910816 -2.917079 8.744272 -29.003055 -1.927546 33.514112 9.590184 -33.111759 -0.247829 5.151828 69.854268 9.578501 6.100589 1.688672 0.177369 -0.270161 0.577470 -0.115274 -7.768938 -35.360397 -1.577069 24.021711 72.947982 23.872360 -21.670163 -1.570071 -3.709337 -0.300804 -0.799700 -0.136078
-4.933226 57.900765 32.475761 173.196574 -39.012595 -0.701150 1.413262 26.095283 2.697871 0.159885 4.346028 0.269441 0.262839 6.938728 0.392479 1.015675 21.492699 1.422719 -0.425977 15.530270 -3.175171 0.284976 -6.904606 -5.757401 8.524065 -3.419611 -3.184803 49.502287 -46.376697 -27.479164 36.968492 2.984928 -3.282877 13.748339 10.859880 -45.422189 -12.469742 -9.246474 0.866266 -34.479949 -42.854397 14.682477 -46.885155 -2.912215 8.742970 -29.007662 -1.963300 33.527525 9.620909 -33.106591 -0.262337 5.156948 69.862194 9.585449 6.100882 1.686754 0.180056 -0.280600 0.575961 -0.115090 -7.746398 -35.351874 -1.588417 24.003019 72.956573 23.844929 -21.663785 -1.564513 -3.683830 -0.304050 -0.805885 -0.151041
-4.933862 57.899300 32.474591 173.194716 -39.017941 -0.688542 1.405100 26.080373 2.722519 0.158640 4.360269 0.240764 0.263091 6.936929 0.393387 1.010837 21.482462 1.443150 -0.461774 15.550003 -3.212540 0.220790 -6.847675 -5.805873 8.525844 -3.409494 -3.192391 49.479473 -46.363971 -27.455605 36.896498 2.938638 -3.304772 13.765499 10.842286 -45.477334 -12.470376 -9.232694 0.854800 -34.450818 -42.838567 14.698921 -46.873433 -2.955140 8.738403 -29.001429 -1.984298 33.535604 9.638969 -33.103989 -0.278287 5.168815 69.869021 9.600639 6.089189 1.682169 0.184416 -0.276303 0.576842 -0.119182 -7.736533 -35.348089 -1.604056 24.006789 72.958278 23.845757 -21.653001 -1.560069 -3.677368 -0.320857 -0.805481 -0.151064
-4.933990 57.897988 32.473395 173.185965 -39.024925 -0.676311 1.406634 26.082808 2.724141 0.156973 4.358491 0.241338 0.257338 6.918732 0.430866 0.999045 21.496519 1.424272 -0.502974 15.567905 -3.247987 0.154947 -6.782532 -5.858242 8.518967 -3.422423 -3.169421 49.432413 -46.340056 -27.402029 36.868181 2.905809 -3.328968 13.774872 10.829446 -45.535270 -12.481042 -9.213162 0.869590 -34.402711 -42.870957 14.666798 -46.867044 -2.952613 8.743964 -29.003895 -2.004410 33.539714 9.652654 -33.103166 -0.281240 5.165743 69.878172 9.593701 6.083434 1.685462 0.184698 -0.268630 0.570985 -0.117300 -7.723991 -35.339989 -1.614677 24.014091 72.958290 23.850724 -21.643714 -1.561659 -3.669022 -0.326459 -0.802073 -0.154445
-4.933877 57.896738 32.472360 173.181869 -39.032199 -0.669756 1.406776 26.086147 2.729379 0.150075 4.347846 0.274078 0.254480 6.927240 0.411312 0.994017 21.499876 1.414388 -0.536795 15.590662 -3.266500 0.079774 -6.723669 -5.910778 8.516795 -3.435844 -3.157554 49.371993 -46.342725 -27.337946 36.841203 2.875947 -3.351026 13.782893 10.816858 -45.595111 -12.487053 -9.204726 0.877348 -34.375680 -42.883924 14.655789 -46.861998 -2.948108 8.747808 -28.994670 -2.039426 33.560833 9.650372 -33.100748 -0.275071 5.169466 69.885231 9.584857 6.081459 1.687336 0.179073 -0.267165 0.567340 -0.109701 -7.712500 -35.331841 -1.621587 24.007918 72.958463 23.846560 -21.646480 -1.561950 -3.664257 -0.332364 -0.799512 -0.155482
-4.935990 57.896294 32.470308 173.186136 -39.046960 -0.655279 1.389838 26.094643 2.727322 0.148439 4.350154 0.271061 0.250469 6.924179 0.418304 0.988943 21.506513 1.403506 -0.576981 15.618986 -3.286596 0.005896 -6.676396 -5.965469 8.514890 -3.456451 -3.144589 49.352402 -46.319157 -27.310816 36.778679 2.837562 -3.367196 13.790014 10.796906 -45.660519 -12.487715 -9.200055 0.879675 -34.347115 -42.887469 14.657808 -46.865618 -2.937785 8.752457 -28.988227 -2.082966 33.573261 9.647543 -33.088480 -0.277498 5.189184 69.898383 9.579389 6.069742 1.673855 0.189023 -0.270265 0.570881 -0.110140 -7.701213 -35.319114 -1.644646 24.007578 72.958158 23.845857 -21.656179 -1.555350 -3.661063 -0.320881 -0.803766 -0.156338
-4.936068 57.895458 32.469411 173.181453 -39.057733 -0.648350 1.383624 26.099967 2.740216 0.152118 4.354457 0.255897 0.247880 6.920933 0.424198 0.983230 21.502914 1.424593 -0.622298 15.648252 -3.326328 -0.074012 -6.631594 -6.020247 8.515491 -3.472291 -3.150109 49.331871 -46.292130 -27.279999 36.715970 2.798490 -3.378093 13.796731 10.772838 -45.732986 -12.479223 -9.196931 0.848715 -34.327636 -42.879342 14.672479 -46.872124 -2.949044 8.747282 -28.981325 -2.106363 33.585027 9.648050 -33.080349 -0.272562 5.184680 69.904449 9.563914 6.067498 1.667555 0.192157 -0.273996 0.574307 -0.110889 -7.685908 -35.308511 -1.652935 24.075061 72.952296 23.910471 -21.666615 -1.552404 -3.657331 -0.325486 -0.803684 -0.153413
-4.935548 57.893845 32.470046 173.182127 -39.061162 -0.649245 1.373775 26.092623 2.753773 0.150854 4.354161 0.257241 0.249811 6.926536 0.415552 0.978737 21.495964 1.442248 -0.670053 15.675934 -3.364786 -0.159488 -6.587656 -6.068929 8.514558 -3.487979 -3.152913 49.250968 -46.288834 -27.181727 36.701617 2.772728 -3.399662 13.803171 10.755006 -45.802995 -12.479016 -9.187182 0.841490 -34.301820 -42.875261 14.687154 -46.866623 -2.972084 8.734582 -28.970264 -2.131878 33.600429 9.642302 -33.079782 -0.264390 5.163471 69.908700 9.534926 6.068263 1.664212 0.194127 -0.277305 0.577389 -0.112266 -7.677942 -35.307138 -1.655823 24.081487 72.953917 23.921934 -21.666766 -1.547109 -3.658622 -0.320162 -0.804713 -0.150220
-4.936033 57.892830 32.470338 173.175689 -39.071183 -0.638692 1.355344 26.082841 2.772729 0.159982 4.363280 0.240388 0.247703 6.925660 0.416948 0.972458 21.494990 1.445714 -0.721100 15.701207 -3.400191 -0.245611 -6.543196 -6.116967 8.513239 -3.506268 -3.155879 49.196297 -46.268719 -27.105712 36.662584 2.738646 -3.415598 13.801647 10.747683 -45.870225 -12.482662 -9.178341 0.851648 -34.276931 -42.874017 14.685489 -46.849982 -2.997806 8.726772 -28.966576 -2.140410 33.608972 9.622369 -33.073265 -0.251818 5.163696 69.914713 9.508870 6.067873 1.663673 0.196350 -0.277602 0.577286 -0.114277 -7.660805 -35.297885 -1.670082 24.093898 72.951889 23.938126 -21.664763 -1.540514 -3.659006 -0.322663 -0.809022 -0.148696
